<svg width="23" height="24" viewBox="0 0 23 24" fill="none" xmlns="http://www.w3.org/2000/svg">
<path d="M21.735 0.725586H1.265C0.929501 0.725586 0.607744 0.858862 0.37051 1.0961C0.133277 1.33333 0 1.65509 0 1.99059V22.4606C0 22.6267 0.0327203 22.7912 0.0962925 22.9447C0.159865 23.0982 0.253044 23.2376 0.37051 23.3551C0.487976 23.4725 0.627429 23.5657 0.780905 23.6293C0.934382 23.6929 1.09888 23.7256 1.265 23.7256H12.282V14.8131H9.292V11.3631H12.282V8.77559C12.2201 8.16811 12.2918 7.55443 12.4921 6.9776C12.6925 6.40078 13.0166 5.87476 13.4417 5.43646C13.8669 4.99815 14.3828 4.65817 14.9532 4.44036C15.5237 4.22255 16.1349 4.13218 16.744 4.17559C17.6391 4.17008 18.5337 4.21615 19.4235 4.31359V7.41859H17.595C16.146 7.41859 15.87 8.10859 15.87 9.10909V11.3286H19.32L18.8715 14.7786H15.87V23.7256H21.735C21.9011 23.7256 22.0656 23.6929 22.2191 23.6293C22.3726 23.5657 22.512 23.4725 22.6295 23.3551C22.747 23.2376 22.8401 23.0982 22.9037 22.9447C22.9673 22.7912 23 22.6267 23 22.4606V1.99059C23 1.82446 22.9673 1.65997 22.9037 1.50649C22.8401 1.35301 22.747 1.21356 22.6295 1.0961C22.512 0.97863 22.3726 0.885451 22.2191 0.821878C22.0656 0.758306 21.9011 0.725586 21.735 0.725586Z" fill="#FBFDFF"/>
</svg>
