<svg width="1344" height="512" viewBox="0 0 1344 512" fill="none" xmlns="http://www.w3.org/2000/svg">
    <g opacity="0.3">
        <g opacity="0.3">
            <line x1="4.92793e-08" y1="32.9377" x2="541.142" y2="32.9377" stroke="#F1F1F1" stroke-width="1.12738" />
            <line x1="4.92793e-08" y1="32.9377" x2="541.142" y2="32.9377" stroke="#F1F1F1" stroke-width="1.12738" />
            <line x1="4.92793e-08" y1="66.7591" x2="541.142" y2="66.7591" stroke="#F1F1F1" stroke-width="1.12738" />
            <line x1="4.92793e-08" y1="66.7591" x2="541.142" y2="66.7591" stroke="#F1F1F1" stroke-width="1.12738" />
            <line x1="4.92793e-08" y1="100.58" x2="541.142" y2="100.58" stroke="#F1F1F1" stroke-width="1.12738" />
            <line x1="4.92793e-08" y1="100.581" x2="541.142" y2="100.581" stroke="#F1F1F1" stroke-width="1.12738" />
            <line x1="4.92793e-08" y1="134.402" x2="541.142" y2="134.402" stroke="#F1F1F1" stroke-width="1.12738" />
            <line x1="4.92793e-08" y1="134.402" x2="541.142" y2="134.402" stroke="#F1F1F1" stroke-width="1.12738" />
            <line x1="4.92793e-08" y1="168.223" x2="541.142" y2="168.223" stroke="#F1F1F1" stroke-width="1.12738" />
            <line x1="4.92793e-08" y1="168.223" x2="541.142" y2="168.223" stroke="#F1F1F1" stroke-width="1.12738" />
            <line x1="4.92793e-08" y1="202.045" x2="541.142" y2="202.045" stroke="#F1F1F1" stroke-width="1.12738" />
            <line x1="4.92793e-08" y1="202.045" x2="541.142" y2="202.045" stroke="#F1F1F1" stroke-width="1.12738" />
            <line x1="4.92793e-08" y1="235.866" x2="541.142" y2="235.866" stroke="#F1F1F1" stroke-width="1.12738" />
            <line x1="4.92793e-08" y1="235.866" x2="541.142" y2="235.867" stroke="#F1F1F1" stroke-width="1.12738" />
            <line x1="4.92793e-08" y1="269.688" x2="541.142" y2="269.688" stroke="#F1F1F1" stroke-width="1.12738" />
            <line x1="4.92793e-08" y1="269.688" x2="541.142" y2="269.688" stroke="#F1F1F1" stroke-width="1.12738" />
            <line x1="4.92793e-08" y1="303.509" x2="541.142" y2="303.509" stroke="#F1F1F1" stroke-width="1.12738" />
            <line x1="4.92793e-08" y1="303.509" x2="541.142" y2="303.509" stroke="#F1F1F1" stroke-width="1.12738" />
            <line x1="4.92793e-08" y1="337.331" x2="541.142" y2="337.331" stroke="#F1F1F1" stroke-width="1.12738" />
            <line x1="4.92793e-08" y1="337.331" x2="541.142" y2="337.331" stroke="#F1F1F1" stroke-width="1.12738" />
            <line x1="4.92793e-08" y1="371.152" x2="541.142" y2="371.152" stroke="#F1F1F1" stroke-width="1.12738" />
            <line x1="4.92793e-08" y1="371.152" x2="541.142" y2="371.152" stroke="#F1F1F1" stroke-width="1.12738" />
            <line x1="4.92793e-08" y1="404.974" x2="541.142" y2="404.974" stroke="#F1F1F1" stroke-width="1.12738" />
            <line x1="4.92793e-08" y1="404.974" x2="541.142" y2="404.974" stroke="#F1F1F1" stroke-width="1.12738" />
            <line x1="4.92793e-08" y1="438.795" x2="541.142" y2="438.796" stroke="#F1F1F1" stroke-width="1.12738" />
            <line x1="4.92793e-08" y1="438.795" x2="541.142" y2="438.795" stroke="#F1F1F1" stroke-width="1.12738" />
            <line x1="4.92793e-08" y1="472.617" x2="541.142" y2="472.617" stroke="#F1F1F1" stroke-width="1.12738" />
            <line x1="4.92793e-08" y1="472.617" x2="541.142" y2="472.617" stroke="#F1F1F1" stroke-width="1.12738" />
            <line x1="4.92793e-08" y1="506.438" x2="541.142" y2="506.438" stroke="#F1F1F1" stroke-width="1.12738" />
        </g>
        <g opacity="0.3">
            <line x1="541.705" y1="-0.320068" x2="541.705" y2="507" stroke="#F1F1F1" stroke-width="1.12738" />
            <line x1="507.884" y1="-0.320068" x2="507.884" y2="507" stroke="#F1F1F1" stroke-width="1.12738" />
            <line x1="507.884" y1="-0.320068" x2="507.884" y2="507" stroke="#F1F1F1" stroke-width="1.12738" />
            <line x1="474.063" y1="-0.320068" x2="474.063" y2="507" stroke="#F1F1F1" stroke-width="1.12738" />
            <line x1="474.063" y1="-0.320068" x2="474.063" y2="507" stroke="#F1F1F1" stroke-width="1.12738" />
            <line x1="440.241" y1="-0.320068" x2="440.241" y2="507" stroke="#F1F1F1" stroke-width="1.12738" />
            <line x1="440.241" y1="-0.320068" x2="440.241" y2="507" stroke="#F1F1F1" stroke-width="1.12738" />
            <line x1="406.42" y1="-0.320068" x2="406.42" y2="507" stroke="#F1F1F1" stroke-width="1.12738" />
            <line x1="406.419" y1="-0.320068" x2="406.419" y2="507" stroke="#F1F1F1" stroke-width="1.12738" />
            <line x1="372.598" y1="-0.320068" x2="372.598" y2="507" stroke="#F1F1F1" stroke-width="1.12738" />
            <line x1="372.598" y1="-0.320068" x2="372.598" y2="507" stroke="#F1F1F1" stroke-width="1.12738" />
            <line x1="338.777" y1="-0.320068" x2="338.777" y2="507" stroke="#F1F1F1" stroke-width="1.12738" />
            <line x1="338.777" y1="-0.320068" x2="338.777" y2="507" stroke="#F1F1F1" stroke-width="1.12738" />
            <line x1="304.955" y1="-0.320068" x2="304.955" y2="507" stroke="#F1F1F1" stroke-width="1.12738" />
            <line x1="304.955" y1="-0.320068" x2="304.955" y2="507" stroke="#F1F1F1" stroke-width="1.12738" />
            <line x1="271.134" y1="-0.320068" x2="271.134" y2="507" stroke="#F1F1F1" stroke-width="1.12738" />
            <line x1="271.134" y1="-0.320068" x2="271.134" y2="507" stroke="#F1F1F1" stroke-width="1.12738" />
            <line x1="237.313" y1="-0.320068" x2="237.313" y2="507" stroke="#F1F1F1" stroke-width="1.12738" />
            <line x1="237.313" y1="-0.320068" x2="237.313" y2="507" stroke="#F1F1F1" stroke-width="1.12738" />
            <line x1="203.491" y1="-0.320068" x2="203.491" y2="507" stroke="#F1F1F1" stroke-width="1.12738" />
            <line x1="203.49" y1="-0.320068" x2="203.49" y2="507" stroke="#F1F1F1" stroke-width="1.12738" />
            <line x1="169.669" y1="-0.320068" x2="169.669" y2="507" stroke="#F1F1F1" stroke-width="1.12738" />
            <line x1="169.669" y1="-0.320068" x2="169.669" y2="507" stroke="#F1F1F1" stroke-width="1.12738" />
            <line x1="135.848" y1="-0.320068" x2="135.848" y2="507" stroke="#F1F1F1" stroke-width="1.12738" />
            <line x1="135.848" y1="-0.320068" x2="135.848" y2="507" stroke="#F1F1F1" stroke-width="1.12738" />
            <line x1="102.027" y1="-0.320068" x2="102.027" y2="507" stroke="#F1F1F1" stroke-width="1.12738" />
            <line x1="102.027" y1="-0.320068" x2="102.027" y2="507" stroke="#F1F1F1" stroke-width="1.12738" />
            <line x1="68.2053" y1="-0.320068" x2="68.2052" y2="507" stroke="#F1F1F1" stroke-width="1.12738" />
            <line x1="68.2053" y1="-0.320068" x2="68.2052" y2="507" stroke="#F1F1F1" stroke-width="1.12738" />
            <line x1="34.384" y1="-0.320068" x2="34.384" y2="507" stroke="#F1F1F1" stroke-width="1.12738" />
        </g>
    </g>
    <g opacity="0.3">
        <g opacity="0.3">
            <line x1="541.142" y1="32.9375" x2="1082.28" y2="32.9376" stroke="#F1F1F1" stroke-width="1.12738" />
            <line x1="541.142" y1="32.9375" x2="1082.28" y2="32.9376" stroke="#F1F1F1" stroke-width="1.12738" />
            <line x1="541.142" y1="66.7588" x2="1082.28" y2="66.7589" stroke="#F1F1F1" stroke-width="1.12738" />
            <line x1="541.142" y1="66.7591" x2="1082.28" y2="66.7591" stroke="#F1F1F1" stroke-width="1.12738" />
            <line x1="541.142" y1="100.58" x2="1082.28" y2="100.58" stroke="#F1F1F1" stroke-width="1.12738" />
            <line x1="541.142" y1="100.581" x2="1082.28" y2="100.581" stroke="#F1F1F1" stroke-width="1.12738" />
            <line x1="541.142" y1="134.402" x2="1082.28" y2="134.402" stroke="#F1F1F1" stroke-width="1.12738" />
            <line x1="541.142" y1="134.402" x2="1082.28" y2="134.402" stroke="#F1F1F1" stroke-width="1.12738" />
            <line x1="541.142" y1="168.223" x2="1082.28" y2="168.223" stroke="#F1F1F1" stroke-width="1.12738" />
            <line x1="541.142" y1="168.223" x2="1082.28" y2="168.223" stroke="#F1F1F1" stroke-width="1.12738" />
            <line x1="541.142" y1="202.045" x2="1082.28" y2="202.045" stroke="#F1F1F1" stroke-width="1.12738" />
            <line x1="541.142" y1="202.045" x2="1082.28" y2="202.045" stroke="#F1F1F1" stroke-width="1.12738" />
            <line x1="541.142" y1="235.866" x2="1082.28" y2="235.866" stroke="#F1F1F1" stroke-width="1.12738" />
            <line x1="541.142" y1="235.866" x2="1082.28" y2="235.866" stroke="#F1F1F1" stroke-width="1.12738" />
            <line x1="541.142" y1="269.688" x2="1082.28" y2="269.688" stroke="#F1F1F1" stroke-width="1.12738" />
            <line x1="541.142" y1="269.688" x2="1082.28" y2="269.688" stroke="#F1F1F1" stroke-width="1.12738" />
            <line x1="541.142" y1="303.509" x2="1082.28" y2="303.509" stroke="#F1F1F1" stroke-width="1.12738" />
            <line x1="541.142" y1="303.509" x2="1082.28" y2="303.509" stroke="#F1F1F1" stroke-width="1.12738" />
            <line x1="541.142" y1="337.331" x2="1082.28" y2="337.331" stroke="#F1F1F1" stroke-width="1.12738" />
            <line x1="541.142" y1="337.331" x2="1082.28" y2="337.331" stroke="#F1F1F1" stroke-width="1.12738" />
            <line x1="541.142" y1="371.152" x2="1082.28" y2="371.152" stroke="#F1F1F1" stroke-width="1.12738" />
            <line x1="541.142" y1="371.152" x2="1082.28" y2="371.152" stroke="#F1F1F1" stroke-width="1.12738" />
            <line x1="541.142" y1="404.974" x2="1082.28" y2="404.974" stroke="#F1F1F1" stroke-width="1.12738" />
            <line x1="541.142" y1="404.974" x2="1082.28" y2="404.974" stroke="#F1F1F1" stroke-width="1.12738" />
            <line x1="541.142" y1="438.795" x2="1082.28" y2="438.795" stroke="#F1F1F1" stroke-width="1.12738" />
            <line x1="541.142" y1="438.795" x2="1082.28" y2="438.795" stroke="#F1F1F1" stroke-width="1.12738" />
            <line x1="541.142" y1="472.617" x2="1082.28" y2="472.617" stroke="#F1F1F1" stroke-width="1.12738" />
            <line x1="541.142" y1="472.616" x2="1082.28" y2="472.617" stroke="#F1F1F1" stroke-width="1.12738" />
            <line x1="541.142" y1="506.438" x2="1082.28" y2="506.438" stroke="#F1F1F1" stroke-width="1.12738" />
        </g>
        <g opacity="0.3">
            <line x1="1082.85" y1="-0.320068" x2="1082.85" y2="507" stroke="#F1F1F1" stroke-width="1.12738" />
            <line x1="1049.03" y1="-0.320068" x2="1049.03" y2="507" stroke="#F1F1F1" stroke-width="1.12738" />
            <line x1="1049.03" y1="-0.320068" x2="1049.03" y2="507" stroke="#F1F1F1" stroke-width="1.12738" />
            <line x1="1015.2" y1="-0.320068" x2="1015.2" y2="507" stroke="#F1F1F1" stroke-width="1.12738" />
            <line x1="1015.2" y1="-0.320068" x2="1015.2" y2="507" stroke="#F1F1F1" stroke-width="1.12738" />
            <line x1="981.383" y1="-0.320068" x2="981.383" y2="507" stroke="#F1F1F1" stroke-width="1.12738" />
            <line x1="981.383" y1="-0.320068" x2="981.383" y2="507" stroke="#F1F1F1" stroke-width="1.12738" />
            <line x1="947.562" y1="-0.320068" x2="947.562" y2="507" stroke="#F1F1F1" stroke-width="1.12738" />
            <line x1="947.561" y1="-0.320068" x2="947.561" y2="507" stroke="#F1F1F1" stroke-width="1.12738" />
            <line x1="913.739" y1="-0.320068" x2="913.739" y2="507" stroke="#F1F1F1" stroke-width="1.12738" />
            <line x1="913.739" y1="-0.320068" x2="913.739" y2="507" stroke="#F1F1F1" stroke-width="1.12738" />
            <line x1="879.918" y1="-0.320068" x2="879.918" y2="507" stroke="#F1F1F1" stroke-width="1.12738" />
            <line x1="879.918" y1="-0.320068" x2="879.918" y2="507" stroke="#F1F1F1" stroke-width="1.12738" />
            <line x1="846.097" y1="-0.320068" x2="846.097" y2="507" stroke="#F1F1F1" stroke-width="1.12738" />
            <line x1="846.097" y1="-0.320068" x2="846.097" y2="507" stroke="#F1F1F1" stroke-width="1.12738" />
            <line x1="812.276" y1="-0.320068" x2="812.276" y2="507" stroke="#F1F1F1" stroke-width="1.12738" />
            <line x1="812.276" y1="-0.320068" x2="812.276" y2="507" stroke="#F1F1F1" stroke-width="1.12738" />
            <line x1="778.454" y1="-0.320068" x2="778.454" y2="507" stroke="#F1F1F1" stroke-width="1.12738" />
            <line x1="778.454" y1="-0.320068" x2="778.454" y2="507" stroke="#F1F1F1" stroke-width="1.12738" />
            <line x1="744.633" y1="-0.320068" x2="744.633" y2="507" stroke="#F1F1F1" stroke-width="1.12738" />
            <line x1="744.632" y1="-0.320068" x2="744.632" y2="507" stroke="#F1F1F1" stroke-width="1.12738" />
            <line x1="710.811" y1="-0.320068" x2="710.811" y2="507" stroke="#F1F1F1" stroke-width="1.12738" />
            <line x1="710.811" y1="-0.320068" x2="710.811" y2="507" stroke="#F1F1F1" stroke-width="1.12738" />
            <line x1="676.989" y1="-0.320068" x2="676.989" y2="507" stroke="#F1F1F1" stroke-width="1.12738" />
            <line x1="676.989" y1="-0.320068" x2="676.989" y2="507" stroke="#F1F1F1" stroke-width="1.12738" />
            <line x1="643.168" y1="-0.320068" x2="643.168" y2="507" stroke="#F1F1F1" stroke-width="1.12738" />
            <line x1="643.168" y1="-0.320068" x2="643.168" y2="507" stroke="#F1F1F1" stroke-width="1.12738" />
            <line x1="609.347" y1="-0.320068" x2="609.347" y2="507" stroke="#F1F1F1" stroke-width="1.12738" />
            <line x1="609.347" y1="-0.320068" x2="609.347" y2="507" stroke="#F1F1F1" stroke-width="1.12738" />
            <line x1="575.526" y1="-0.320068" x2="575.526" y2="507" stroke="#F1F1F1" stroke-width="1.12738" />
        </g>
    </g>
    <g opacity="0.3">
        <g opacity="0.3">
            <line x1="1082.28" y1="32.9375" x2="1623.43" y2="32.9376" stroke="#F1F1F1" stroke-width="1.12738" />
            <line x1="1082.28" y1="32.9375" x2="1623.43" y2="32.9376" stroke="#F1F1F1" stroke-width="1.12738" />
            <line x1="1082.28" y1="66.7588" x2="1623.43" y2="66.7589" stroke="#F1F1F1" stroke-width="1.12738" />
            <line x1="1082.28" y1="66.7591" x2="1623.43" y2="66.7591" stroke="#F1F1F1" stroke-width="1.12738" />
            <line x1="1082.28" y1="100.58" x2="1623.43" y2="100.58" stroke="#F1F1F1" stroke-width="1.12738" />
            <line x1="1082.28" y1="100.581" x2="1623.43" y2="100.581" stroke="#F1F1F1" stroke-width="1.12738" />
            <line x1="1082.28" y1="134.402" x2="1623.43" y2="134.402" stroke="#F1F1F1" stroke-width="1.12738" />
            <line x1="1082.28" y1="134.402" x2="1623.43" y2="134.402" stroke="#F1F1F1" stroke-width="1.12738" />
            <line x1="1082.28" y1="168.223" x2="1623.43" y2="168.223" stroke="#F1F1F1" stroke-width="1.12738" />
            <line x1="1082.28" y1="168.223" x2="1623.43" y2="168.223" stroke="#F1F1F1" stroke-width="1.12738" />
            <line x1="1082.28" y1="202.045" x2="1623.43" y2="202.045" stroke="#F1F1F1" stroke-width="1.12738" />
            <line x1="1082.28" y1="202.045" x2="1623.43" y2="202.045" stroke="#F1F1F1" stroke-width="1.12738" />
            <line x1="1082.28" y1="235.866" x2="1623.43" y2="235.866" stroke="#F1F1F1" stroke-width="1.12738" />
            <line x1="1082.28" y1="235.866" x2="1623.43" y2="235.866" stroke="#F1F1F1" stroke-width="1.12738" />
            <line x1="1082.28" y1="269.688" x2="1623.43" y2="269.688" stroke="#F1F1F1" stroke-width="1.12738" />
            <line x1="1082.28" y1="269.688" x2="1623.43" y2="269.688" stroke="#F1F1F1" stroke-width="1.12738" />
            <line x1="1082.28" y1="303.509" x2="1623.43" y2="303.509" stroke="#F1F1F1" stroke-width="1.12738" />
            <line x1="1082.28" y1="303.509" x2="1623.43" y2="303.509" stroke="#F1F1F1" stroke-width="1.12738" />
            <line x1="1082.28" y1="337.331" x2="1623.43" y2="337.331" stroke="#F1F1F1" stroke-width="1.12738" />
            <line x1="1082.28" y1="337.331" x2="1623.43" y2="337.331" stroke="#F1F1F1" stroke-width="1.12738" />
            <line x1="1082.28" y1="371.152" x2="1623.43" y2="371.152" stroke="#F1F1F1" stroke-width="1.12738" />
            <line x1="1082.28" y1="371.152" x2="1623.43" y2="371.152" stroke="#F1F1F1" stroke-width="1.12738" />
            <line x1="1082.28" y1="404.974" x2="1623.43" y2="404.974" stroke="#F1F1F1" stroke-width="1.12738" />
            <line x1="1082.28" y1="404.974" x2="1623.43" y2="404.974" stroke="#F1F1F1" stroke-width="1.12738" />
            <line x1="1082.28" y1="438.795" x2="1623.43" y2="438.795" stroke="#F1F1F1" stroke-width="1.12738" />
            <line x1="1082.28" y1="438.795" x2="1623.43" y2="438.795" stroke="#F1F1F1" stroke-width="1.12738" />
            <line x1="1082.28" y1="472.617" x2="1623.43" y2="472.617" stroke="#F1F1F1" stroke-width="1.12738" />
            <line x1="1082.28" y1="472.616" x2="1623.43" y2="472.617" stroke="#F1F1F1" stroke-width="1.12738" />
            <line x1="1082.28" y1="506.438" x2="1623.43" y2="506.438" stroke="#F1F1F1" stroke-width="1.12738" />
        </g>
        <g opacity="0.3">
            <line x1="1319.6" y1="-0.32019" x2="1319.6" y2="507" stroke="#F1F1F1" stroke-width="1.12738" />
            <line x1="1319.6" y1="-0.32019" x2="1319.6" y2="507" stroke="#F1F1F1" stroke-width="1.12738" />
            <line x1="1285.77" y1="-0.32019" x2="1285.77" y2="507" stroke="#F1F1F1" stroke-width="1.12738" />
            <line x1="1285.77" y1="-0.32019" x2="1285.77" y2="507" stroke="#F1F1F1" stroke-width="1.12738" />
            <line x1="1251.95" y1="-0.32019" x2="1251.95" y2="507" stroke="#F1F1F1" stroke-width="1.12738" />
            <line x1="1251.95" y1="-0.32019" x2="1251.95" y2="507" stroke="#F1F1F1" stroke-width="1.12738" />
            <line x1="1218.13" y1="-0.32019" x2="1218.13" y2="507" stroke="#F1F1F1" stroke-width="1.12738" />
            <line x1="1218.13" y1="-0.32019" x2="1218.13" y2="507" stroke="#F1F1F1" stroke-width="1.12738" />
            <line x1="1184.31" y1="-0.32019" x2="1184.31" y2="507" stroke="#F1F1F1" stroke-width="1.12738" />
            <line x1="1184.31" y1="-0.32019" x2="1184.31" y2="507" stroke="#F1F1F1" stroke-width="1.12738" />
            <line x1="1150.49" y1="-0.32019" x2="1150.49" y2="507" stroke="#F1F1F1" stroke-width="1.12738" />
            <line x1="1150.49" y1="-0.32019" x2="1150.49" y2="507" stroke="#F1F1F1" stroke-width="1.12738" />
            <line x1="1116.67" y1="-0.32019" x2="1116.67" y2="507" stroke="#F1F1F1" stroke-width="1.12738" />
        </g>
    </g>
    <rect width="1344" height="512" fill="url(#paint0_linear_6032_16380)" />
    <defs>
        <linearGradient id="paint0_linear_6032_16380" x1="672" y1="0" x2="672" y2="512" gradientUnits="userSpaceOnUse">
            <stop stop-color="#262626" stop-opacity="0" />
            <stop offset="1" stop-color="#262626" />
        </linearGradient>
    </defs>
</svg>