<svg width="432" height="322" viewbox="0 0 432 322" fill="none" xmlns="http://www.w3.org/2000/svg">
    <g>
        <line x1="-54.5713" y1="33.2576" x2="486.57" y2="33.2576" stroke="#F1F1F1" stroke-width="1.12738" />
        <line x1="-54.5713" y1="33.2578" x2="486.57" y2="33.2579" stroke="#F1F1F1" stroke-width="1.12738" />
        <line x1="-54.5713" y1="67.0791" x2="486.57" y2="67.0792" stroke="#F1F1F1" stroke-width="1.12738" />
        <line x1="-54.5713" y1="67.0791" x2="486.57" y2="67.0792" stroke="#F1F1F1" stroke-width="1.12738" />
        <line x1="-54.5713" y1="100.9" x2="486.57" y2="100.9" stroke="#F1F1F1" stroke-width="1.12738" />
        <line x1="-54.5713" y1="100.901" x2="486.57" y2="100.901" stroke="#F1F1F1" stroke-width="1.12738" />
        <line x1="-54.5713" y1="134.722" x2="486.57" y2="134.722" stroke="#F1F1F1" stroke-width="1.12738" />
        <line x1="-54.5713" y1="134.722" x2="486.57" y2="134.722" stroke="#F1F1F1" stroke-width="1.12738" />
        <line x1="-54.5713" y1="168.543" x2="486.57" y2="168.544" stroke="#F1F1F1" stroke-width="1.12738" />
        <line x1="-54.5713" y1="168.544" x2="486.57" y2="168.544" stroke="#F1F1F1" stroke-width="1.12738" />
        <line x1="-54.5713" y1="202.365" x2="486.57" y2="202.365" stroke="#F1F1F1" stroke-width="1.12738" />
        <line x1="-54.5713" y1="202.365" x2="486.57" y2="202.365" stroke="#F1F1F1" stroke-width="1.12738" />
        <line x1="-54.5713" y1="236.186" x2="486.57" y2="236.186" stroke="#F1F1F1" stroke-width="1.12738" />
        <line x1="-54.5713" y1="236.187" x2="486.57" y2="236.187" stroke="#F1F1F1" stroke-width="1.12738" />
        <line x1="-54.5713" y1="270.008" x2="486.57" y2="270.008" stroke="#F1F1F1" stroke-width="1.12738" />
        <line x1="-54.5713" y1="270.008" x2="486.57" y2="270.008" stroke="#F1F1F1" stroke-width="1.12738" />
        <line x1="-54.5713" y1="303.829" x2="486.57" y2="303.829" stroke="#F1F1F1" stroke-width="1.12738" />
        <line x1="-54.5713" y1="303.829" x2="486.57" y2="303.829" stroke="#F1F1F1" stroke-width="1.12738" />
    </g>
    <g>
        <line x1="419.491" y1="4.92793e-08" x2="419.491" y2="507.32" stroke="#F1F1F1" stroke-width="1.12738" />
        <line x1="419.491" y1="4.92793e-08" x2="419.491" y2="507.32" stroke="#F1F1F1" stroke-width="1.12738" />
        <line x1="385.67" y1="4.92793e-08" x2="385.67" y2="507.32" stroke="#F1F1F1" stroke-width="1.12738" />
        <line x1="385.67" y1="4.92793e-08" x2="385.67" y2="507.32" stroke="#F1F1F1" stroke-width="1.12738" />
        <line x1="351.848" y1="4.92793e-08" x2="351.848" y2="507.32" stroke="#F1F1F1" stroke-width="1.12738" />
        <line x1="351.848" y1="4.92793e-08" x2="351.848" y2="507.32" stroke="#F1F1F1" stroke-width="1.12738" />
        <line x1="318.027" y1="4.92793e-08" x2="318.027" y2="507.32" stroke="#F1F1F1" stroke-width="1.12738" />
        <line x1="318.027" y1="4.92793e-08" x2="318.027" y2="507.32" stroke="#F1F1F1" stroke-width="1.12738" />
        <line x1="284.205" y1="4.92793e-08" x2="284.205" y2="507.32" stroke="#F1F1F1" stroke-width="1.12738" />
        <line x1="284.205" y1="4.92793e-08" x2="284.205" y2="507.32" stroke="#F1F1F1" stroke-width="1.12738" />
        <line x1="250.384" y1="4.92793e-08" x2="250.384" y2="507.32" stroke="#F1F1F1" stroke-width="1.12738" />
        <line x1="250.384" y1="4.92793e-08" x2="250.384" y2="507.32" stroke="#F1F1F1" stroke-width="1.12738" />
        <line x1="216.563" y1="4.92793e-08" x2="216.563" y2="507.32" stroke="#F1F1F1" stroke-width="1.12738" />
        <line x1="216.562" y1="4.92793e-08" x2="216.562" y2="507.32" stroke="#F1F1F1" stroke-width="1.12738" />
        <line x1="182.741" y1="4.92793e-08" x2="182.741" y2="507.32" stroke="#F1F1F1" stroke-width="1.12738" />
        <line x1="182.741" y1="4.92793e-08" x2="182.741" y2="507.32" stroke="#F1F1F1" stroke-width="1.12738" />
        <line x1="148.92" y1="4.92793e-08" x2="148.92" y2="507.32" stroke="#F1F1F1" stroke-width="1.12738" />
        <line x1="148.92" y1="4.92793e-08" x2="148.92" y2="507.32" stroke="#F1F1F1" stroke-width="1.12738" />
        <line x1="115.098" y1="4.92793e-08" x2="115.098" y2="507.32" stroke="#F1F1F1" stroke-width="1.12738" />
        <line x1="115.098" y1="4.92793e-08" x2="115.098" y2="507.32" stroke="#F1F1F1" stroke-width="1.12738" />
        <line x1="81.2766" y1="4.92793e-08" x2="81.2765" y2="507.32" stroke="#F1F1F1" stroke-width="1.12738" />
        <line x1="81.2766" y1="4.92793e-08" x2="81.2765" y2="507.32" stroke="#F1F1F1" stroke-width="1.12738" />
        <line x1="47.4553" y1="4.92793e-08" x2="47.4552" y2="507.32" stroke="#F1F1F1" stroke-width="1.12738" />
        <line x1="47.4553" y1="4.92793e-08" x2="47.4552" y2="507.32" stroke="#F1F1F1" stroke-width="1.12738" />
        <line x1="13.634" y1="4.92793e-08" x2="13.634" y2="507.32" stroke="#F1F1F1" stroke-width="1.12738" />
        <line x1="13.6335" y1="4.92793e-08" x2="13.6335" y2="507.32" stroke="#F1F1F1" stroke-width="1.12738" />
    </g>
</svg>