<svg width="23" height="24" viewBox="0 0 23 24" fill="none" xmlns="http://www.w3.org/2000/svg">
<path d="M21.2993 0.725747H1.7007C1.4804 0.722705 1.26165 0.762831 1.05694 0.843831C0.852238 0.924832 0.665592 1.04512 0.507663 1.19783C0.349734 1.35054 0.223615 1.53267 0.13651 1.73383C0.0494042 1.93499 0.00301776 2.15124 0 2.37022V22.0809C0.00301776 22.2999 0.0494042 22.5162 0.13651 22.7173C0.223615 22.9185 0.349734 23.1006 0.507663 23.2533C0.665592 23.406 0.852238 23.5263 1.05694 23.6073C1.26165 23.6883 1.4804 23.7285 1.7007 23.7254H21.2993C21.5196 23.7285 21.7384 23.6883 21.9431 23.6073C22.1478 23.5263 22.3344 23.406 22.4923 23.2533C22.6503 23.1006 22.7764 22.9185 22.8635 22.7173C22.9506 22.5162 22.997 22.2999 23 22.0809V2.37022C22.997 2.15124 22.9506 1.93499 22.8635 1.73383C22.7764 1.53267 22.6503 1.35054 22.4923 1.19783C22.3344 1.04512 22.1478 0.924832 21.9431 0.843831C21.7384 0.762831 21.5196 0.722705 21.2993 0.725747ZM6.97636 19.9765H3.50553V9.62662H6.97636V19.9765ZM5.24095 8.17764C4.76228 8.17764 4.30321 7.98863 3.96474 7.6522C3.62627 7.31576 3.43612 6.85946 3.43612 6.38367C3.43612 5.90788 3.62627 5.45157 3.96474 5.11514C4.30321 4.7787 4.76228 4.58969 5.24095 4.58969C5.49512 4.56104 5.75252 4.58607 5.99628 4.66316C6.24005 4.74024 6.46469 4.86763 6.65549 5.03699C6.84629 5.20635 6.99895 5.41386 7.10347 5.64593C7.208 5.878 7.26203 6.1294 7.26203 6.38367C7.26203 6.63793 7.208 6.88933 7.10347 7.1214C6.99895 7.35347 6.84629 7.56098 6.65549 7.73034C6.46469 7.8997 6.24005 8.02709 5.99628 8.10418C5.75252 8.18126 5.49512 8.20629 5.24095 8.17764ZM19.4945 19.9765H16.0236V14.4221C16.0236 13.0306 15.5262 12.1221 14.2651 12.1221C13.8748 12.1249 13.4948 12.2466 13.1762 12.4707C12.8576 12.6949 12.6159 13.0107 12.4834 13.3756C12.3929 13.6459 12.3536 13.9305 12.3677 14.2151V19.965H8.89688C8.89688 19.965 8.89688 10.5581 8.89688 9.61512H12.3677V11.0756C12.683 10.5318 13.1416 10.0838 13.6941 9.7798C14.2465 9.47584 14.872 9.32746 15.503 9.35063C17.8169 9.35063 19.4945 10.8341 19.4945 14.0196V19.9765Z" fill="#FBFDFF"/>
</svg>
