<svg width="325" height="26" viewBox="0 0 325 26" fill="none" xmlns="http://www.w3.org/2000/svg">
<g clip-path="url(#clip0_4763_936)">
<mask id="mask0_4763_936" style="mask-type:luminance" maskUnits="userSpaceOnUse" x="0" y="0" width="325" height="26">
<path d="M325 0H0V26H325V0Z" fill="white"/>
</mask>
<g mask="url(#mask0_4763_936)">
<path d="M30.7138 22.0901H31.5861C31.7989 22.0901 32.3734 22.0901 32.3734 22.6023C32.3734 23.1773 31.7244 23.1773 31.5117 23.1773H30.7138V22.0901ZM30.3095 21.7242V24.8605H30.7138V23.5328H31.5117C32.2351 23.5328 32.3308 23.7837 32.3308 24.275C32.3415 24.6723 32.3628 24.7664 32.4266 24.8605H32.8309C32.7564 24.735 32.7564 24.6723 32.7245 24.1391C32.7138 23.7419 32.6287 23.4805 32.1925 23.355C32.6181 23.24 32.7883 22.9264 32.7883 22.5814C32.7883 21.7242 31.8627 21.7242 31.6606 21.7242H30.3201H30.3095ZM31.501 20.5219C29.9371 20.5219 28.7031 21.766 28.7031 23.261C28.7031 24.7559 29.9371 26 31.501 26C33.0649 26 34.2777 24.7768 34.2777 23.261C34.2777 21.7451 33.0436 20.5219 31.501 20.5219ZM31.501 20.8878C32.8521 20.8878 33.8841 21.9751 33.8841 23.261C33.8841 24.5468 32.8096 25.6341 31.501 25.6341C30.1925 25.6341 29.118 24.5573 29.118 23.261C29.118 21.9646 30.1499 20.8878 31.501 20.8878Z" fill="white"/>
<path d="M43.8099 20.0515H40.1183L41.9482 14.9288H41.9801L43.8099 20.0515ZM35.6607 24.8605H38.2885L39.3949 22.0064H44.5227L45.6079 24.8605H48.4165L43.4482 12.4302H40.5864L35.6607 24.8605Z" fill="white"/>
<path d="M49.7889 15.692H52.0549V16.9779H52.0868C52.8528 15.8593 53.9486 15.4829 54.8635 15.4829C56.1721 15.4829 57.087 15.9638 57.6189 17.1033C58.1828 15.9952 59.3956 15.4829 60.5339 15.4829C62.8318 15.4829 63.4808 17.0302 63.4808 19.0792V24.8605H61.0552V19.3928C61.0552 18.5356 61.0552 17.3229 59.6615 17.3229C58.0551 17.3229 57.853 19.2151 57.853 20.4069V24.8605H55.4273V19.3928C55.4273 18.5356 55.4273 17.3229 54.0337 17.3229C52.4166 17.3229 52.2251 19.2151 52.2251 20.4069V24.8605H49.7995V15.692H49.7889Z" fill="white"/>
<path d="M66.9277 19.1628C67.0341 17.9292 67.7256 17.0093 69.0874 17.0093C70.4491 17.0093 70.9917 18.0024 71.0662 19.1628H66.9384H66.9277ZM72.6939 22.1946C71.7896 22.6964 70.7789 23.1146 69.598 23.1146C68.098 23.1146 67.0447 22.2782 66.9384 20.8042H73.3854C73.3854 17.5947 72.4066 15.2738 68.9491 15.2738C66.0554 15.2738 64.6191 17.4588 64.6191 20.1142C64.6191 23.1251 66.4064 24.8709 69.4916 24.8709C70.8002 24.8709 71.8109 24.62 72.6939 24.1391V22.1946Z" fill="white"/>
<path d="M75.3322 15.692H77.4919V17.7724H77.5344C77.6408 16.9152 78.6409 15.4725 80.0877 15.4725C80.3218 15.4725 80.5771 15.4725 80.8324 15.5456V17.9501C80.609 17.8247 80.1835 17.7515 79.7473 17.7515C77.7685 17.7515 77.7685 20.1769 77.7685 21.4942V24.8605H75.3429V15.692H75.3322Z" fill="white"/>
<path d="M82.375 15.692H84.8006V24.8605H82.375V15.692ZM82.375 11.7402H84.8006V14.0193H82.375V11.7402Z" fill="white"/>
<path d="M93.4073 17.4483C92.9711 17.2497 92.503 17.1138 91.7583 17.1138C90.2583 17.1138 89.2902 18.2847 89.2902 20.0201C89.2902 21.7555 90.1093 23.01 91.8115 23.01C92.503 23.01 93.2584 22.7591 93.6733 22.5814L93.7797 24.5573C93.0669 24.7664 92.3435 24.8605 91.3541 24.8605C88.2901 24.8605 86.7582 22.8114 86.7582 20.0201C86.7582 17.2288 88.354 15.2634 91.2689 15.2634C92.2477 15.2634 92.9499 15.3679 93.6201 15.5665L93.4073 17.4483Z" fill="white"/>
<path d="M97.1202 21.9855C97.1202 20.5742 98.7373 20.4069 99.8224 20.4069H100.876C100.876 21.1178 100.769 21.7764 100.365 22.2992C99.982 22.801 99.4075 23.1146 98.6628 23.1146C97.7904 23.1146 97.1202 22.7801 97.1202 21.996M95.8861 18.0129C96.7053 17.4065 97.7372 17.0197 98.7692 17.0197C100.205 17.0197 100.876 17.5215 100.876 18.9956H99.5352C98.5245 18.9956 97.3223 19.0792 96.3968 19.5288C95.4712 19.9783 94.801 20.7728 94.801 22.1423C94.801 23.8882 96.4074 24.8709 98.0564 24.8709C99.1628 24.8709 100.376 24.3064 100.939 23.2923H100.971C100.993 23.5746 100.993 24.1809 101.078 24.6618H103.216C103.163 23.9509 103.131 23.3132 103.11 22.6128C103.088 21.9333 103.078 21.2433 103.078 20.3128V19.1419C103.078 16.4343 101.897 15.2738 99.0564 15.2738C98.0245 15.2738 96.7585 15.5456 95.8116 15.9743L95.8861 18.0233V18.0129Z" fill="white"/>
<path d="M105.11 15.692H107.408V16.9361H107.44C108.206 15.8802 109.238 15.4725 110.504 15.4725C112.716 15.4725 113.674 16.9988 113.674 19.0688V24.85H111.248V19.9574C111.248 18.8388 111.227 17.3229 109.674 17.3229C107.918 17.3229 107.535 19.1942 107.535 20.3651V24.85H105.11V15.6815V15.692Z" fill="white"/>
<path d="M118.759 12.4302H121.419L123.781 22.3619H123.813L125.972 12.4302H129.408L131.643 22.3619H131.675L134.047 12.4302H136.515L133.217 24.8605H129.951L127.674 14.9184H127.632L125.387 24.8605H122.11L118.759 12.4302Z" fill="white"/>
<path d="M138.27 21.9855C138.27 20.5742 139.888 20.4069 140.973 20.4069H142.026C142.026 21.1178 141.92 21.7764 141.515 22.2992C141.132 22.801 140.558 23.1146 139.813 23.1146C138.941 23.1146 138.27 22.7801 138.27 21.996M137.036 18.0129C137.856 17.4065 138.888 17.0197 139.919 17.0197C141.345 17.0197 142.015 17.5215 142.015 18.9956H140.675C139.664 18.9956 138.462 19.0792 137.536 19.5288C136.611 19.9783 135.941 20.7728 135.941 22.1423C135.941 23.8882 137.558 24.8709 139.196 24.8709C140.302 24.8709 141.515 24.3064 142.079 23.2923H142.111C142.132 23.5746 142.132 24.1809 142.217 24.6618H144.356C144.303 23.9509 144.26 23.3132 144.249 22.6128C144.228 21.9333 144.217 21.2433 144.217 20.3128V19.1419C144.217 16.4343 143.037 15.2738 140.196 15.2738C139.164 15.2738 137.898 15.5456 136.951 15.9743L137.026 18.0233L137.036 18.0129Z" fill="white"/>
<path d="M146.696 17.2183H144.898V15.4725H146.696V12.8693H149.122V15.4725H151.282V17.2183H149.122V21.4942C149.122 22.2782 149.335 23.0101 150.26 23.0101C150.696 23.0101 151.111 22.9264 151.367 22.7592L151.441 24.6409C150.93 24.7873 150.377 24.85 149.643 24.85C147.739 24.85 146.686 23.6896 146.686 21.881V17.2183H146.696Z" fill="white"/>
<path d="M154.665 19.1628C154.771 17.9292 155.463 17.0093 156.824 17.0093C158.186 17.0093 158.729 18.0024 158.792 19.1628H154.665ZM160.42 22.1946C159.516 22.6964 158.505 23.1146 157.324 23.1146C155.824 23.1146 154.771 22.2782 154.665 20.8042H161.112C161.112 17.5947 160.133 15.2738 156.675 15.2738C153.782 15.2738 152.345 17.4588 152.345 20.1142C152.345 23.1251 154.133 24.8709 157.218 24.8709C158.526 24.8709 159.537 24.62 160.42 24.1391V22.1946Z" fill="white"/>
<path d="M163.069 15.692H165.229V17.7724H165.261C165.367 16.9152 166.367 15.4725 167.814 15.4725C168.048 15.4725 168.303 15.4725 168.559 15.5456V17.9501C168.346 17.8247 167.91 17.7515 167.474 17.7515C165.495 17.7515 165.495 20.1769 165.495 21.4942V24.8605H163.069V15.692Z" fill="white"/>
<path d="M174.027 12.4302H176.697L179.048 22.3619H179.08L181.24 12.4302H184.687L186.91 22.3619H186.942L189.315 12.4302H191.783L188.485 24.8605H185.229L182.942 14.9184H182.91L180.655 24.8605H177.378L174.027 12.4302Z" fill="white"/>
<path d="M194.102 19.8319C194.102 18.4624 194.868 17.1033 196.443 17.1033C198.017 17.1033 198.794 18.4206 198.794 19.8319C198.794 21.3583 198.304 22.9996 196.443 22.9996C194.581 22.9996 194.102 21.3478 194.102 19.8319ZM191.57 20.1142C191.57 22.7487 193.368 24.85 196.443 24.85C199.517 24.85 201.336 22.7487 201.336 20.1142C201.336 17.0929 199.219 15.2529 196.443 15.2529C193.666 15.2529 191.57 17.0929 191.57 20.1142Z" fill="white"/>
<path d="M202.922 15.692H205.081V17.7724H205.113C205.22 16.9152 206.22 15.4725 207.666 15.4725C207.9 15.4725 208.156 15.4725 208.411 15.5456V17.9501C208.198 17.8247 207.762 17.7515 207.326 17.7515C205.347 17.7515 205.347 20.1769 205.347 21.4942V24.8605H202.922V15.692Z" fill="white"/>
<path d="M209.613 11.5103H212.039V19.351H212.071L214.975 15.692H217.837L214.358 19.7797L218.273 24.8605H215.188L212.071 20.4069H212.039V24.8605H209.613V11.5103Z" fill="white"/>
<path d="M225.167 17.3961C224.422 17.1452 223.88 16.9988 222.997 16.9988C222.348 16.9988 221.571 17.2288 221.571 18.0129C221.571 19.4765 225.795 18.546 225.795 21.8601C225.795 23.9928 223.858 24.85 221.88 24.85C220.954 24.85 220.018 24.6932 219.124 24.4528L219.273 22.4978C220.039 22.8741 220.837 23.1041 221.667 23.1041C222.284 23.1041 223.263 22.8741 223.263 21.9855C223.263 20.1874 219.039 21.421 219.039 18.107C219.039 16.1311 220.794 15.2529 222.699 15.2529C223.837 15.2529 224.582 15.4306 225.337 15.5875L225.178 17.3856L225.167 17.3961Z" fill="white"/>
<path d="M238.412 20.0515H234.72L236.55 14.9288H236.582L238.412 20.0515ZM230.263 24.8605H232.891L233.997 22.0064H239.125L240.21 24.8605H243.019L238.061 12.4302H235.199L230.274 24.8605H230.263Z" fill="white"/>
<path d="M249.966 17.3961C249.221 17.1452 248.678 17.0093 247.795 17.0093C247.146 17.0093 246.37 17.2392 246.37 18.0233C246.37 19.4869 250.593 18.5565 250.593 21.8705C250.593 24.0032 248.657 24.8605 246.678 24.8605C245.753 24.8605 244.817 24.7037 243.923 24.4632L244.072 22.5082C244.838 22.8846 245.625 23.1146 246.466 23.1146C247.083 23.1146 248.061 22.8846 248.061 21.996C248.061 20.1978 243.838 21.421 243.838 18.1174C243.838 16.1415 245.593 15.2738 247.497 15.2738C248.636 15.2738 249.381 15.4516 250.146 15.6084L249.987 17.4065L249.966 17.3961Z" fill="white"/>
<path d="M258.008 17.3961C257.264 17.1452 256.721 17.0093 255.838 17.0093C255.189 17.0093 254.413 17.2392 254.413 18.0233C254.413 19.4869 258.636 18.5565 258.636 21.8705C258.636 24.0032 256.7 24.8605 254.721 24.8605C253.796 24.8605 252.859 24.7037 251.966 24.4632L252.115 22.5082C252.881 22.8846 253.679 23.1146 254.508 23.1146C255.125 23.1146 256.104 22.8846 256.104 21.996C256.104 20.1978 251.881 21.421 251.881 18.1174C251.881 16.1415 253.636 15.2738 255.54 15.2738C256.679 15.2738 257.423 15.4516 258.189 15.6084L258.03 17.4065L258.008 17.3961Z" fill="white"/>
<path d="M262.455 19.8319C262.455 18.4624 263.221 17.1033 264.796 17.1033C266.37 17.1033 267.147 18.4206 267.147 19.8319C267.147 21.3583 266.658 22.9996 264.796 22.9996C262.934 22.9996 262.455 21.3478 262.455 19.8319ZM259.923 20.1142C259.923 22.7487 261.711 24.85 264.796 24.85C267.881 24.85 269.69 22.7487 269.69 20.1142C269.69 17.0929 267.573 15.2529 264.796 15.2529C262.019 15.2529 259.923 17.0929 259.923 20.1142Z" fill="white"/>
<path d="M277.637 17.4483C277.201 17.2497 276.733 17.1138 275.988 17.1138C274.488 17.1138 273.52 18.2847 273.52 20.0201C273.52 21.7555 274.339 23.01 276.041 23.01C276.732 23.01 277.488 22.7591 277.903 22.5814L278.009 24.5573C277.307 24.7664 276.584 24.8605 275.584 24.8605C272.52 24.8605 270.977 22.8114 270.977 20.0201C270.977 17.2288 272.573 15.2634 275.488 15.2634C276.467 15.2634 277.169 15.3679 277.839 15.5665L277.616 17.4483H277.637Z" fill="white"/>
<path d="M279.679 15.692H282.105V24.8605H279.679V15.692ZM279.679 11.7402H282.105V14.0193H279.679V11.7402Z" fill="white"/>
<path d="M286.02 21.9855C286.02 20.5742 287.637 20.4069 288.722 20.4069H289.775C289.775 21.1178 289.669 21.7764 289.265 22.2992C288.882 22.801 288.307 23.1146 287.563 23.1146C286.69 23.1146 286.02 22.7801 286.02 21.996M284.786 18.0129C285.605 17.4065 286.637 17.0197 287.669 17.0197C289.105 17.0197 289.775 17.5215 289.775 18.9956H288.435C287.424 18.9956 286.222 19.0792 285.297 19.5288C284.371 19.9783 283.701 20.7728 283.701 22.1423C283.701 23.8882 285.318 24.8709 286.967 24.8709C288.073 24.8709 289.286 24.3064 289.85 23.2923H289.882C289.903 23.5746 289.903 24.1809 289.988 24.6618H292.127C292.073 23.9509 292.031 23.3132 292.02 22.6128C291.999 21.9333 291.988 21.2433 291.988 20.3128V19.1419C291.988 16.4343 290.807 15.2738 287.967 15.2738C286.935 15.2738 285.669 15.5456 284.722 15.9638L284.797 18.0129H284.786Z" fill="white"/>
<path d="M294.808 17.2183H293.01V15.4725H294.808V12.8693H297.233V15.4725H299.393V17.2183H297.233V21.4942C297.233 22.2782 297.446 23.0101 298.371 23.0101C298.808 23.0101 299.223 22.9264 299.478 22.7592L299.552 24.6409C299.042 24.7873 298.478 24.85 297.754 24.85C295.85 24.85 294.797 23.6896 294.797 21.881V17.2183H294.808Z" fill="white"/>
<path d="M301.106 15.692H303.531V24.8605H301.106V15.692ZM301.106 11.7402H303.531V14.0193H301.106V11.7402Z" fill="white"/>
<path d="M307.67 19.8319C307.67 18.4624 308.425 17.1033 310.01 17.1033C311.595 17.1033 312.361 18.4206 312.361 19.8319C312.361 21.3583 311.872 22.9996 310.01 22.9996C308.148 22.9996 307.67 21.3478 307.67 19.8319ZM305.127 20.1142C305.127 22.7487 306.925 24.85 310 24.85C313.074 24.85 314.893 22.7487 314.893 20.1142C314.893 17.0929 312.776 15.2529 310 15.2529C307.223 15.2529 305.127 17.0929 305.127 20.1142Z" fill="white"/>
</g>
<mask id="mask1_4763_936" style="mask-type:luminance" maskUnits="userSpaceOnUse" x="0" y="0" width="326" height="26">
<path d="M325.01 0H0.031723V26H325.01V0Z" fill="white"/>
</mask>
<g mask="url(#mask1_4763_936)">
<path d="M316.436 15.692H318.734V16.9361H318.766C319.521 15.8906 320.564 15.4725 321.83 15.4725C324.043 15.4725 325 16.9988 325 19.0688V24.8605H322.574V19.9678C322.574 18.8492 322.553 17.3333 321 17.3333C319.245 17.3333 318.862 19.2047 318.862 20.3756V24.8605H316.436V15.692Z" fill="white"/>
<path d="M5.2023 0L16.7346 24.8605H20.5858L9.06413 0H5.2023Z" fill="white"/>
<path d="M15.8197 0H11.9578L23.4901 24.8605H27.352L15.8197 0Z" fill="white"/>
<path d="M9.93656 17.1661C7.97905 13.6011 6.42581 9.95255 5.36195 6.56534H5.30875C4.25553 9.96301 2.70228 13.5907 0.734135 17.1661C0.287312 17.9292 -0.0105705 18.891 -0.0105705 19.8424C-0.0105705 22.7382 2.38313 25.0905 5.33003 25.0905C8.27693 25.0905 10.6706 22.7382 10.6706 19.8424C10.6706 18.891 10.3727 17.9397 9.92593 17.1661" fill="white"/>
</g>
</g>
<defs>
<clipPath id="clip0_4763_936">
<rect width="325" height="26" fill="white"/>
</clipPath>
</defs>
</svg>
