<svg width="20" height="21" viewBox="0 0 20 21" fill="none" xmlns="http://www.w3.org/2000/svg">
<g clip-path="url(#clip0_6675_910)">
<path d="M15.9988 10.8984V6.08485C15.9983 4.81952 15.4954 3.60615 14.6005 2.71157C13.7056 1.817 12.4921 1.31445 11.2268 1.31445H1.62288C1.41106 1.31445 1.20792 1.3986 1.05814 1.54838C0.908363 1.69815 0.824219 1.9013 0.824219 2.11311V18.885C0.824219 19.0968 0.908363 19.2999 1.05814 19.4497C1.20792 19.5995 1.41106 19.6836 1.62288 19.6836H4.00129" stroke="#1263FF" stroke-linecap="round" stroke-linejoin="round"/>
<path d="M12.0054 1.37891V4.51046C12.0054 4.72227 12.0895 4.92542 12.2393 5.07519C12.3891 5.22497 12.5922 5.30912 12.804 5.30912H15.9348" stroke="#1263FF" stroke-linecap="round" stroke-linejoin="round"/>
<path d="M9.5921 14.8922C9.5921 15.102 9.55079 15.3097 9.47052 15.5035C9.39024 15.6973 9.27258 15.8734 9.12426 16.0217C8.97593 16.17 8.79985 16.2877 8.60605 16.368C8.41225 16.4482 8.20455 16.4896 7.99478 16.4896H6.39746V13.2949H7.99478C8.41842 13.2949 8.8247 13.4632 9.12426 13.7628C9.42381 14.0623 9.5921 14.4686 9.5921 14.8922Z" stroke="#1263FF" stroke-linecap="round" stroke-linejoin="round"/>
<path d="M6.39746 19.6829V16.4883" stroke="#1263FF" stroke-linecap="round" stroke-linejoin="round"/>
<path d="M11.189 13.2949C12.0362 13.2949 12.8488 13.6315 13.4479 14.2306C14.047 14.8297 14.3836 15.6423 14.3836 16.4896C14.3836 17.3368 14.047 18.1494 13.4479 18.7485C12.8488 19.3476 12.0362 19.6842 11.189 19.6842V13.2949Z" stroke="#1263FF" stroke-linecap="round" stroke-linejoin="round"/>
<path d="M15.981 19.6842V14.4929C15.981 14.1752 16.1072 13.8705 16.3318 13.6458C16.5565 13.4211 16.8612 13.2949 17.1789 13.2949H19.1756" stroke="#1263FF" stroke-linecap="round" stroke-linejoin="round"/>
<path d="M15.981 16.4883H17.9776" stroke="#1263FF" stroke-linecap="round" stroke-linejoin="round"/>
</g>
<defs>
<clipPath id="clip0_6675_910">
<rect width="20" height="20" fill="white" transform="translate(0 0.5)"/>
</clipPath>
</defs>
</svg>
