<svg width="268" height="30" viewBox="0 0 268 30" fill="none" xmlns="http://www.w3.org/2000/svg">
<path d="M1.48926 0V30H0V0H1.48926ZM11.415 0V30H8.4375V0H11.415ZM21.3408 0V30H18.3633V0H21.3408ZM31.2666 0V30H28.2891V0H31.2666ZM41.1924 0V30H38.2148V0H41.1924ZM51.1182 0V30H48.1406V0H51.1182ZM61.0449 0V30H58.0664V0H61.0449ZM70.9707 0V30H67.9922V0H70.9707ZM80.8965 0V30H77.9189V0H80.8965ZM90.8223 0V30H87.8447V0H90.8223ZM100.748 0V30H97.7705V0H100.748ZM110.674 0V30H107.696V0H110.674ZM120.6 0V30H117.622V0H120.6ZM130.526 0V30H127.548V0H130.526ZM140.452 0V30H137.474V0H140.452ZM150.378 0V30H147.4V0H150.378ZM160.304 0V30H157.326V0H160.304ZM170.229 0V30H167.252V0H170.229ZM180.155 0V30H177.178V0H180.155ZM190.081 0V30H187.104V0H190.081ZM200.008 0V30H197.029V0H200.008ZM209.934 0V30H206.956V0H209.934ZM219.859 0V30H216.882V0H219.859ZM229.785 0V30H226.808V0H229.785ZM239.711 0V30H236.733V0H239.711ZM249.637 0V30H246.659V0H249.637ZM259.563 0V30H256.585V0H259.563ZM268 0V30H266.511V0H268Z" fill="url(#paint0_linear_9308_20057)"/>
<defs>
<linearGradient id="paint0_linear_9308_20057" x1="1.39837e-06" y1="14" x2="268.005" y2="14.5023" gradientUnits="userSpaceOnUse">
<stop stop-color="#6AFF96" stop-opacity="0"/>
<stop offset="1" stop-color="#6AFF96"/>
</linearGradient>
</defs>
</svg>
