<svg width="23" height="24" viewBox="0 0 23 24" fill="none" xmlns="http://www.w3.org/2000/svg">
<mask id="mask0_3418_7921" style="mask-type:luminance" maskUnits="userSpaceOnUse" x="0" y="0" width="23" height="24">
<path d="M23 0.725586H0V23.7256H23V0.725586Z" fill="white"/>
</mask>
<g mask="url(#mask0_3418_7921)">
<path d="M20.3047 0.725586H2.69531C1.20673 0.725586 0 1.93232 0 3.4209V21.0303C0 22.5189 1.20673 23.7256 2.69531 23.7256H20.3047C21.7933 23.7256 23 22.5189 23 21.0303V3.4209C23 1.93232 21.7933 0.725586 20.3047 0.725586Z" fill="#FBFDFF"/>
<path d="M15.9879 5.21777H18.3655L13.1711 11.1546L19.2819 19.2334H14.4972L10.7497 14.3337L6.46159 19.2334H4.08255L9.63847 12.8832L3.77637 5.21777H8.68253L12.07 9.6963L15.9879 5.21777ZM15.1534 17.8103H16.4709L7.96666 6.56615H6.55288L15.1534 17.8103Z" fill="#0269A5"/>
</g>
</svg>
