<svg width="20" height="21" viewBox="0 0 20 21" fill="none" xmlns="http://www.w3.org/2000/svg">
<g clip-path="url(#clip0_6675_881)">
<path d="M9.16645 3.925C9.18762 4.09819 9.17187 4.2739 9.1202 4.44053C9.06845 4.60716 8.98195 4.76093 8.86645 4.89167C8.74762 5.0237 8.60245 5.12928 8.4402 5.20155C8.27798 5.27381 8.10236 5.31116 7.92477 5.31116C7.74717 5.31116 7.57155 5.27381 7.40933 5.20155C7.24709 5.12928 7.10188 5.0237 6.9831 4.89167C6.86461 4.76233 6.77507 4.6092 6.72046 4.4425C6.66586 4.27581 6.64743 4.09939 6.66643 3.925L6.97476 0.916672H8.74978L9.16645 3.925Z" stroke="#1263FF" stroke-linecap="round" stroke-linejoin="round"/>
<path d="M7.91781 7.37499C7.80275 7.37499 7.70947 7.28172 7.70947 7.16666C7.70947 7.0516 7.80275 6.95833 7.91781 6.95833" stroke="#1263FF"/>
<path d="M7.91748 7.37499C8.03254 7.37499 8.12581 7.28172 8.12581 7.16666C8.12581 7.0516 8.03254 6.95833 7.91748 6.95833" stroke="#1263FF"/>
<path d="M7.91781 9.45834C7.80275 9.45834 7.70947 9.36509 7.70947 9.25001C7.70947 9.13492 7.80275 9.04167 7.91781 9.04167" stroke="#1263FF"/>
<path d="M7.91748 9.45834C8.03254 9.45834 8.12581 9.36509 8.12581 9.25001C8.12581 9.13492 8.03254 9.04167 7.91748 9.04167" stroke="#1263FF"/>
<path d="M7.91781 11.5417C7.80275 11.5417 7.70947 11.4484 7.70947 11.3333C7.70947 11.2182 7.80275 11.125 7.91781 11.125" stroke="#1263FF"/>
<path d="M7.91748 11.5417C8.03254 11.5417 8.12581 11.4484 8.12581 11.3333C8.12581 11.2182 8.03254 11.125 7.91748 11.125" stroke="#1263FF"/>
<path d="M7.91781 13.625C7.80275 13.625 7.70947 13.5317 7.70947 13.4167C7.70947 13.3016 7.80275 13.2083 7.91781 13.2083" stroke="#1263FF"/>
<path d="M7.91797 13.625C8.03303 13.625 8.1263 13.5317 8.1263 13.4167C8.1263 13.3016 8.03303 13.2083 7.91797 13.2083" stroke="#1263FF"/>
<path d="M7.91781 15.7083C7.80275 15.7083 7.70947 15.6151 7.70947 15.5C7.70947 15.3849 7.80275 15.2917 7.91781 15.2917" stroke="#1263FF"/>
<path d="M7.91797 15.7083C8.03303 15.7083 8.1263 15.6151 8.1263 15.5C8.1263 15.3849 8.03303 15.2917 7.91797 15.2917" stroke="#1263FF"/>
<path d="M7.91781 17.7917C7.80275 17.7917 7.70947 17.6984 7.70947 17.5833C7.70947 17.4682 7.80275 17.375 7.91781 17.375" stroke="#1263FF"/>
<path d="M7.91797 17.7917C8.03303 17.7917 8.1263 17.6984 8.1263 17.5833C8.1263 17.4682 8.03303 17.375 7.91797 17.375" stroke="#1263FF"/>
<path d="M17.6752 4.25002C17.7524 4.32789 17.8135 4.42023 17.855 4.52176C17.8964 4.6233 17.9175 4.73201 17.9168 4.84169V19.25C17.9168 19.471 17.829 19.683 17.6727 19.8393C17.5165 19.9956 17.3045 20.0833 17.0835 20.0833H2.91683C2.69581 20.0833 2.48385 19.9956 2.32757 19.8393C2.1713 19.683 2.0835 19.471 2.0835 19.25V1.75002C2.0835 1.529 2.1713 1.31704 2.32757 1.16076C2.48385 1.00448 2.69581 0.916686 2.91683 0.916686H13.9918C14.1015 0.916052 14.2102 0.937072 14.3117 0.978542C14.4132 1.02001 14.5057 1.08112 14.5835 1.15835L17.6752 4.25002Z" stroke="#1263FF" stroke-linecap="round" stroke-linejoin="round"/>
</g>
<defs>
<clipPath id="clip0_6675_881">
<rect width="20" height="20" fill="white" transform="translate(0 0.5)"/>
</clipPath>
</defs>
</svg>
